# xmcd CD database file
#
# Track frame offsets:
#	150
#	15865
#	37295
#	49040
#	70090
#	89040
#	108830
#	118677
#	135835
#	149580
#	164435
#	175777
#	190577
#	214285
#	226867
#	260110
#
# Disc length: 3634 seconds
#
# Revision: 0
# Processed by: cddbd v1.4PL0 Copyright (c) Steve Scherf et al.
# Submitted via: CDex 1.50Beta5
#
DISCID=e00e3010
DTITLE=Steven Halpern - Eastern Peace
DYEAR=1900
DGENRE=New Age
TTITLE0=August Moon (part 1)
TTITLE1=August Moon (part 2)
TTITLE2=Eastern Peace
TTITLE3=On a Slide of Light
TTITLE4=Kwan Yin
TTITLE5=Song of the Lotus
TTITLE6=Haiku
TTITLE7=Chant of the Ancient Ones
TTITLE8=Gaia's Choir
TTITLE9=Samadhi
TTITLE10=Moonlight on the Ganges
TTITLE11=Amrita
TTITLE12=Sakura
TTITLE13=Sacred Garden
TTITLE14=Shogun Sunset
TTITLE15=In the Hall of Records
EXTD=
EXTT0=
EXTT1=
EXTT2=
EXTT3=
EXTT4=
EXTT5=
EXTT6=
EXTT7=
EXTT8=
EXTT9=
EXTT10=
EXTT11=
EXTT12=
EXTT13=
EXTT14=
EXTT15=
PLAYORDER=
